<?xml version="1.0" encoding="utf-8"?>
<!-- Generator: Adobe Illustrator 21.1.0, SVG Export Plug-In . SVG Version: 6.00 Build 0)  -->
<svg version="1.1" id="Capa_1" xmlns="http://www.w3.org/2000/svg" xmlns:xlink="http://www.w3.org/1999/xlink" x="0px" y="0px"
	 viewBox="0 0 195.5 63.9" style="enable-background:new 0 0 195.5 63.9;" xml:space="preserve">
<style type="text/css">
	.st0{fill:#55565A;}
	.st1{fill:#060E9F;}
</style>
<g>
	<g>
		<path class="st0" d="M60.6,23.2L49.9,38.4L39.7,23.2H31l14.3,20.6c0.5,0.7,1.1,1.3,1.8,1.8c0.7,0.5,1.6,0.7,2.7,0.7
			c1.1,0,2-0.3,2.7-0.8c0.7-0.5,1.3-1.1,1.8-1.8L69,23.2H60.6z"/>
		<path class="st0" d="M82.8,23.6c-0.7-0.5-1.6-0.7-2.7-0.7c-1.1,0-2,0.3-2.8,0.8c-0.7,0.5-1.3,1.1-1.8,1.8L60.9,46h8.4L80,30.9
			l3.6,5.3h0L80,30.9l3.6,5.3H80l-4.3,5.9h11.9l2.7,4h8.5L84.6,25.4C84.1,24.7,83.5,24.1,82.8,23.6z"/>
		<path class="st0" d="M121.9,36.6l-14-12.5c-0.6-0.5-1.1-0.9-1.5-1c-0.4-0.1-0.9-0.2-1.3-0.2c-0.5,0-1,0.1-1.5,0.2
			c-0.5,0.2-0.9,0.4-1.2,0.7c-0.4,0.3-0.6,0.8-0.9,1.3c-0.2,0.5-0.3,1.2-0.3,1.9V46h6.4V32.6l14,12.5c0.5,0.5,1,0.9,1.5,1
			c0.4,0.1,0.9,0.2,1.3,0.2c0.5,0,1-0.1,1.5-0.2c0.5-0.2,0.9-0.4,1.2-0.8c0.4-0.4,0.6-0.8,0.9-1.3c0.2-0.5,0.3-1.2,0.3-1.9V23.2
			h-6.4V36.6z"/>
		<polygon class="st0" points="130.4,29.2 141.1,29.2 141.1,46 148.1,46 148.1,29.2 156.3,29.2 160.9,23.2 134.9,23.2 		"/>
		<path class="st0" d="M186.8,23.2l-5.2,6.3c-0.8,1-1.4,1.8-1.9,2.3c-0.4,0.5-0.8,1-1,1.3c-0.1-0.2-0.3-0.4-0.6-0.7
			c-0.3-0.3-0.6-0.7-0.9-1c-0.3-0.4-0.6-0.7-0.9-1c-0.3-0.3-0.5-0.6-0.7-0.8l-5.5-6.3h-9.1L175,38.5V46h7.1v-7.5l13.5-15.3H186.8z"
			/>
		<path class="st0" d="M21.7,24c-0.7-0.5-1.6-0.7-2.7-0.7c-1.1,0-2,0.3-2.8,0.8c-0.7,0.5-1.3,1.1-1.8,1.8L-0.1,46.4h8.4l10.7-15.1
			l3.6,5.3h0l-3.6-5.3l3.6,5.3H19l-4.3,5.9h11.9l2.7,4h8.5L23.6,25.8C23.1,25.1,22.5,24.5,21.7,24z"/>
	</g>
	<g>
		<polygon class="st1" points="9.5,54 5.8,54 5.8,63.7 3.6,63.7 3.6,54 0,54 0,52 9.5,52 		"/>
		<polygon class="st1" points="25.8,63.7 16.9,63.7 16.9,52 25.6,52 25.6,54 19.1,54 19.1,56.7 25.2,56.7 25.2,58.7 19.1,58.7 
			19.1,61.7 25.8,61.7 		"/>
		<path class="st1" d="M41.1,55.7c-0.1-0.3-0.2-0.6-0.3-0.8c-0.2-0.2-0.3-0.4-0.6-0.6c-0.2-0.2-0.5-0.3-0.8-0.4
			c-0.3-0.1-0.6-0.1-0.9-0.1c-0.5,0-1,0.1-1.4,0.3c-0.4,0.2-0.7,0.4-1,0.8c-0.3,0.3-0.5,0.8-0.7,1.3c-0.2,0.5-0.2,1.1-0.2,1.8
			c0,0.7,0.1,1.2,0.2,1.7c0.2,0.5,0.4,0.9,0.7,1.3c0.3,0.4,0.6,0.6,1,0.8c0.4,0.2,0.8,0.3,1.3,0.3c0.7,0,1.3-0.2,1.7-0.5
			c0.5-0.4,0.8-0.9,0.9-1.6h2.2c-0.1,0.7-0.3,1.2-0.5,1.7c-0.3,0.5-0.6,0.9-1,1.3c-0.4,0.3-0.9,0.6-1.5,0.8
			c-0.6,0.2-1.2,0.3-1.8,0.3c-0.8,0-1.6-0.1-2.3-0.4c-0.7-0.3-1.3-0.7-1.7-1.2c-0.5-0.5-0.8-1.2-1.1-1.9c-0.3-0.7-0.4-1.6-0.4-2.5
			c0-0.9,0.1-1.8,0.4-2.5c0.3-0.7,0.6-1.4,1.1-1.9c0.5-0.5,1.1-0.9,1.7-1.2c0.7-0.3,1.4-0.4,2.3-0.4c0.6,0,1.2,0.1,1.7,0.3
			c0.5,0.2,1,0.4,1.4,0.8c0.4,0.3,0.8,0.7,1.1,1.2c0.3,0.5,0.5,1,0.6,1.6H41.1z"/>
		<polygon class="st1" points="60.5,63.7 58.3,63.7 58.3,58.5 53.3,58.5 53.3,63.7 51.1,63.7 51.1,52 53.3,52 53.3,56.5 58.3,56.5 
			58.3,52 60.5,52 		"/>
		<polygon class="st1" points="78.2,63.7 76.2,63.7 70.9,55.9 70.9,63.7 68.8,63.7 68.8,52 70.9,52 76.1,59.8 76.1,52 78.2,52 		"/>
		<path class="st1" d="M91.6,51.8c0.8,0,1.6,0.1,2.3,0.4c0.7,0.3,1.3,0.7,1.8,1.2c0.5,0.5,0.9,1.2,1.2,1.9c0.3,0.7,0.4,1.6,0.4,2.5
			c0,0.9-0.1,1.7-0.4,2.5c-0.3,0.7-0.7,1.4-1.2,1.9c-0.5,0.5-1.1,0.9-1.8,1.2c-0.7,0.3-1.4,0.4-2.3,0.4c-0.8,0-1.6-0.1-2.3-0.4
			c-0.7-0.3-1.3-0.7-1.8-1.2c-0.5-0.5-0.9-1.2-1.2-1.9c-0.3-0.7-0.4-1.6-0.4-2.5c0-0.9,0.1-1.7,0.4-2.5c0.3-0.7,0.7-1.4,1.2-1.9
			c0.5-0.5,1.1-0.9,1.8-1.2C90,51.9,90.8,51.8,91.6,51.8 M91.6,62c0.5,0,1-0.1,1.4-0.3c0.4-0.2,0.8-0.5,1.1-0.8
			c0.3-0.4,0.5-0.8,0.7-1.3c0.2-0.5,0.3-1.1,0.3-1.7c0-0.7-0.1-1.2-0.3-1.7c-0.2-0.5-0.4-0.9-0.7-1.3c-0.3-0.3-0.7-0.6-1.1-0.8
			c-0.4-0.2-0.9-0.3-1.3-0.3c-0.5,0-1,0.1-1.4,0.3c-0.4,0.2-0.8,0.5-1.1,0.8c-0.3,0.4-0.5,0.8-0.7,1.3c-0.2,0.5-0.3,1.1-0.3,1.7
			c0,0.6,0.1,1.2,0.3,1.7c0.2,0.5,0.4,0.9,0.7,1.3c0.3,0.4,0.7,0.6,1.1,0.8C90.7,61.9,91.1,62,91.6,62"/>
		<polygon class="st1" points="112.6,63.7 105,63.7 105,52 107.2,52 107.2,61.7 112.6,61.7 		"/>
		<path class="st1" d="M125.2,51.8c0.8,0,1.6,0.1,2.3,0.4c0.7,0.3,1.3,0.7,1.8,1.2c0.5,0.5,0.9,1.2,1.2,1.9c0.3,0.7,0.4,1.6,0.4,2.5
			c0,0.9-0.1,1.7-0.4,2.5c-0.3,0.7-0.7,1.4-1.2,1.9c-0.5,0.5-1.1,0.9-1.8,1.2c-0.7,0.3-1.4,0.4-2.3,0.4c-0.8,0-1.6-0.1-2.3-0.4
			c-0.7-0.3-1.3-0.7-1.8-1.2c-0.5-0.5-0.9-1.2-1.2-1.9c-0.3-0.7-0.4-1.6-0.4-2.5c0-0.9,0.1-1.7,0.4-2.5c0.3-0.7,0.7-1.4,1.2-1.9
			c0.5-0.5,1.1-0.9,1.8-1.2C123.7,51.9,124.4,51.8,125.2,51.8 M125.2,62c0.5,0,1-0.1,1.4-0.3c0.4-0.2,0.8-0.5,1.1-0.8
			c0.3-0.4,0.5-0.8,0.7-1.3c0.2-0.5,0.3-1.1,0.3-1.7c0-0.7-0.1-1.2-0.3-1.7c-0.2-0.5-0.4-0.9-0.7-1.3c-0.3-0.3-0.7-0.6-1.1-0.8
			c-0.4-0.2-0.9-0.3-1.3-0.3c-0.5,0-1,0.1-1.4,0.3c-0.4,0.2-0.8,0.5-1.1,0.8c-0.3,0.4-0.5,0.8-0.7,1.3c-0.2,0.5-0.3,1.1-0.3,1.7
			c0,0.6,0.1,1.2,0.3,1.7c0.2,0.5,0.4,0.9,0.7,1.3c0.3,0.4,0.7,0.6,1.1,0.8C124.3,61.9,124.7,62,125.2,62"/>
		<path class="st1" d="M146.6,55.7c-0.1-0.6-0.5-1.1-0.9-1.4c-0.5-0.3-1.1-0.5-1.9-0.5c-0.5,0-1,0.1-1.4,0.3
			c-0.4,0.2-0.8,0.4-1.1,0.8c-0.3,0.3-0.5,0.8-0.7,1.3c-0.2,0.5-0.2,1.1-0.2,1.7c0,0.6,0.1,1.2,0.3,1.7c0.2,0.5,0.4,0.9,0.7,1.3
			c0.3,0.4,0.7,0.6,1.1,0.8c0.4,0.2,0.9,0.3,1.4,0.3c0.7,0,1.4-0.1,1.9-0.3c0.5-0.2,1-0.5,1.3-1v-1.2h-2.9v-2h5.1v6.3h-1.7l-0.3-0.8
			c-0.4,0.3-0.9,0.6-1.4,0.8c-0.6,0.2-1.2,0.3-1.9,0.3c-0.9,0-1.6-0.1-2.3-0.4c-0.7-0.3-1.3-0.7-1.8-1.2c-0.5-0.5-0.9-1.2-1.2-1.9
			c-0.3-0.7-0.4-1.6-0.4-2.5c0-0.9,0.1-1.8,0.4-2.5c0.3-0.7,0.7-1.4,1.2-1.9c0.5-0.5,1.1-0.9,1.8-1.2c0.7-0.3,1.5-0.4,2.3-0.4
			c0.7,0,1.3,0.1,1.9,0.3c0.6,0.2,1.1,0.4,1.5,0.8c0.5,0.3,0.8,0.7,1.1,1.2c0.3,0.5,0.5,1,0.6,1.6H146.6z"/>
		<rect x="157.2" y="52" class="st1" width="2.2" height="11.7"/>
		<polygon class="st1" points="176.7,63.7 167.7,63.7 167.7,52 176.4,52 176.4,54 169.9,54 169.9,56.7 176,56.7 176,58.7 
			169.9,58.7 169.9,61.7 176.7,61.7 		"/>
		<path class="st1" d="M186,59.8c0.1,0.4,0.2,0.7,0.4,0.9c0.2,0.3,0.4,0.5,0.6,0.7c0.3,0.2,0.5,0.3,0.8,0.4c0.3,0.1,0.6,0.1,1,0.1
			c0.4,0,0.7,0,1-0.1c0.3-0.1,0.5-0.2,0.8-0.3c0.2-0.1,0.4-0.3,0.5-0.5c0.1-0.2,0.2-0.4,0.2-0.6c0-0.2-0.1-0.4-0.2-0.6
			c-0.1-0.2-0.3-0.3-0.5-0.5c-0.2-0.1-0.6-0.3-1-0.4c-0.4-0.1-0.9-0.2-1.5-0.4c-0.7-0.1-1.2-0.3-1.7-0.5c-0.5-0.2-0.9-0.4-1.2-0.7
			c-0.3-0.3-0.5-0.6-0.7-0.9c-0.1-0.4-0.2-0.8-0.2-1.2c0-0.5,0.1-0.9,0.3-1.4c0.2-0.4,0.5-0.8,0.9-1.1c0.4-0.3,0.8-0.5,1.4-0.7
			c0.5-0.2,1.1-0.3,1.7-0.3c0.6,0,1.2,0.1,1.8,0.3c0.5,0.2,1,0.4,1.4,0.7c0.4,0.3,0.7,0.7,1,1.2c0.2,0.5,0.4,1,0.4,1.5H191
			c-0.2-1.1-1-1.7-2.4-1.7c-0.7,0-1.3,0.1-1.6,0.4c-0.4,0.2-0.6,0.6-0.6,1c0,0.2,0,0.3,0.1,0.4c0.1,0.1,0.2,0.2,0.4,0.3
			c0.2,0.1,0.4,0.2,0.7,0.3c0.3,0.1,0.6,0.2,1,0.3c0.3,0.1,0.7,0.2,1.1,0.2c0.4,0.1,0.7,0.2,1.1,0.3c0.4,0.1,0.7,0.3,1,0.4
			c0.3,0.2,0.6,0.4,0.8,0.6c0.2,0.3,0.4,0.6,0.6,0.9c0.1,0.3,0.2,0.7,0.2,1.2c0,0.5-0.1,1-0.3,1.5c-0.2,0.4-0.5,0.8-0.9,1.2
			c-0.4,0.3-0.9,0.6-1.4,0.8c-0.5,0.2-1.1,0.3-1.8,0.3c-0.8,0-1.5-0.1-2.1-0.3c-0.6-0.2-1.1-0.5-1.5-0.8c-0.4-0.4-0.7-0.8-1-1.3
			c-0.2-0.5-0.4-1.1-0.4-1.7H186z"/>
		<path class="st1" d="M50.2,27.4c-0.3,0.3-0.8,0.3-1,0l-7.6-8.1c-0.3-0.3-0.3-0.8,0-1L53.8,7c0.3-0.3,0.8-0.3,1,0l7.6,8.1
			c0.3,0.3,0.3,0.8,0,1L50.2,27.4z"/>
		<path class="st1" d="M43.2,14.6l10.7-10c0.3-0.3,0.8-0.3,1,0l5.8,6.2l1.4-1.3c0.3-0.3,0.3-0.7,0-1l-7.6-8.1c-0.3-0.3-0.7-0.3-1,0
			L41.4,11.6c-0.3,0.3-0.3,0.7,0,1L43.2,14.6z"/>
	</g>
</g>
</svg>
