<?xml version="1.0" encoding="UTF-8" standalone="no"?>
<svg
   xmlns:dc="http://purl.org/dc/elements/1.1/"
   xmlns:cc="http://creativecommons.org/ns#"
   xmlns:rdf="http://www.w3.org/1999/02/22-rdf-syntax-ns#"
   xmlns:svg="http://www.w3.org/2000/svg"
   xmlns="http://www.w3.org/2000/svg"
   version="1.2"
   width="16"
   height="16">
  <path
     d="m 7.7499977,1.9999925 c -0.1385,0 -0.25,0.1115 -0.25,0.25 v 1.5 c 0,0.1385 0.1115,0.25 0.25,0.25 h 0.5 c 0.1385,0 0.25,-0.1115 0.25,-0.25 v -1.5 c 0,-0.1385 -0.1115,-0.25 -0.25,-0.25 z m -3.625,1.5 c -0.063905,0 -0.1385329,0.044783 -0.1875,0.09375 l -0.34375,0.34375 c -0.097934,0.097934 -0.097934,0.2458157 0,0.34375 l 1.0625,1.0625 c 0.097934,0.097934 0.2458157,0.097934 0.34375,0 l 0.34375,-0.34375 c 0.097934,-0.097934 0.097934,-0.2458157 0,-0.34375 l -1.0625,-1.0625 c -0.048967,-0.048967 -0.092345,-0.09375 -0.15625,-0.09375 z m 7.7500003,0 c -0.06391,0 -0.107283,0.044783 -0.15625,0.09375 l -1.0625,1.0625 c -0.09793,0.097934 -0.09793,0.2458157 0,0.34375 l 0.34375,0.34375 c 0.09793,0.097934 0.245816,0.097934 0.34375,0 l 1.0625,-1.0625 c 0.09793,-0.097934 0.09793,-0.2458157 0,-0.34375 l -0.34375,-0.34375 c -0.04897,-0.048967 -0.123595,-0.09375 -0.1875,-0.09375 z m -3.8750003,1.5 c -1.6568543,0 -3,1.3431457 -3,3 0,1.6568543 1.3431457,2.9999995 3,2.9999995 1.6568543,0 3.0000003,-1.3431452 3.0000003,-2.9999995 0,-1.6568543 -1.343146,-3 -3.0000003,-3 z m 0,1 c 1.1045695,0 2,0.8954305 2,2 0,1.1045695 -0.8954305,2 -2,2 -1.1045695,0 -2,-0.8954305 -2,-2 0,-1.1045695 0.8954305,-2 2,-2 z m -5.75,1.5 c -0.1385,0 -0.25,0.1115 -0.25,0.25 v 0.5 c 0,0.1385 0.1115,0.25 0.25,0.25 h 1.5 c 0.1385,0 0.25,-0.1115 0.25,-0.25 v -0.5 c 0,-0.1385 -0.1115,-0.25 -0.25,-0.25 z m 10.0000003,0 c -0.1385,0 -0.25,0.1115 -0.25,0.25 v 0.5 c 0,0.1385 0.1115,0.25 0.25,0.25 h 1.5 c 0.1385,0 0.25,-0.1115 0.25,-0.25 v -0.5 c 0,-0.1385 -0.1115,-0.25 -0.25,-0.25 z M 4.8124977,10.593742 c -0.063905,0 -0.1072829,0.01353 -0.15625,0.0625 l -1.0625,1.0625 c -0.097934,0.09793 -0.097934,0.245816 0,0.34375 l 0.34375,0.34375 c 0.097934,0.09793 0.2458157,0.09793 0.34375,0 l 1.0625,-1.0625 c 0.097934,-0.09793 0.097934,-0.245816 0,-0.34375 l -0.34375,-0.34375 c -0.048967,-0.04897 -0.1235952,-0.0625 -0.1875,-0.0625 z m 6.3750003,0 c -0.06391,0 -0.138533,0.01353 -0.1875,0.0625 l -0.34375,0.34375 c -0.09793,0.09793 -0.09793,0.245816 0,0.34375 l 1.0625,1.0625 c 0.09793,0.09793 0.245816,0.09793 0.34375,0 l 0.34375,-0.34375 c 0.09793,-0.09793 0.09793,-0.245816 0,-0.34375 l -1.0625,-1.0625 c -0.04897,-0.04897 -0.09234,-0.0625 -0.15625,-0.0625 z m -3.4375003,1.40625 c -0.1385,0 -0.25,0.1115 -0.25,0.25 v 1.5 c 0,0.1385 0.1115,0.25 0.25,0.25 h 0.5 c 0.1385,0 0.25,-0.1115 0.25,-0.25 v -1.5 c 0,-0.1385 -0.1115,-0.25 -0.25,-0.25 z"
     style="color:#000000;display:inline;overflow:visible;visibility:visible;fill:#000000;fill-opacity:1;fill-rule:nonzero;stroke:none;stroke-width:2.00000024;marker:none;enable-background:new" />
</svg>
