<?xml version="1.0" encoding="UTF-8" standalone="no"?>
<svg
   xmlns:dc="http://purl.org/dc/elements/1.1/"
   xmlns:cc="http://creativecommons.org/ns#"
   xmlns:rdf="http://www.w3.org/1999/02/22-rdf-syntax-ns#"
   xmlns:svg="http://www.w3.org/2000/svg"
   xmlns="http://www.w3.org/2000/svg"
   xmlns:sodipodi="http://sodipodi.sourceforge.net/DTD/sodipodi-0.dtd"
   xmlns:inkscape="http://www.inkscape.org/namespaces/inkscape"
   viewBox="0 0 32 32"
   version="1.1"
   id="svg14"
   sodipodi:docname="pdf.svg"
   inkscape:version="0.92.2 (5c3e80d, 2017-08-06)">
  <metadata
     id="metadata20">
    <rdf:RDF>
      <cc:Work
         rdf:about="">
        <dc:format>image/svg+xml</dc:format>
        <dc:type
           rdf:resource="http://purl.org/dc/dcmitype/StillImage" />
        <dc:title></dc:title>
      </cc:Work>
    </rdf:RDF>
  </metadata>
  <defs
     id="defs18" />
  <sodipodi:namedview
     pagecolor="#ffffff"
     bordercolor="#666666"
     borderopacity="1"
     objecttolerance="10"
     gridtolerance="10"
     guidetolerance="10"
     inkscape:pageopacity="0"
     inkscape:pageshadow="2"
     inkscape:window-width="1920"
     inkscape:window-height="1017"
     id="namedview16"
     showgrid="false"
     inkscape:zoom="7.375"
     inkscape:cx="-24"
     inkscape:cy="16"
     inkscape:window-x="-8"
     inkscape:window-y="-8"
     inkscape:window-maximized="1"
     inkscape:current-layer="svg14" />
  <g
     id="g833"
     transform="matrix(0.95,0,0,0.95,0.8,0.7999)">
    <path
       id="path2"
       style="fill:#df1818;fill-opacity:1"
       d="M 5.336,0 C 4.649,0 4,0.676 4,1.394 v 29.21 c 0,0.676 0.687,1.394 1.336,1.394 h 21.327 c 0.648,0 1.336,-0.717 1.336,-1.394 L 28,8.998 l -9,-9 z"
       inkscape:connector-curvature="0" />
    <path
       id="path4"
       style="fill:#000000;fill-opacity:0.19599998"
       d="m 21,9 7,7 V 9 Z"
       inkscape:connector-curvature="0" />
    <path
       id="path6"
       style="fill:#ffffff;fill-opacity:0.39200003"
       d="m 19,0 8.992,9 H 20.379 C 19.706,9 19.001,8.287 19.001,7.614 Z"
       inkscape:connector-curvature="0" />
    <path
       id="path8"
       style="fill:#ffffff"
       d="m 15.688,10.676 c 0,0 0.461,4.246 -2.793,9.855 -3.254,5.605 -4.211,4.852 -4.551,4.66 -0.344,-0.195 -0.785,-0.828 0.66,-2.09 1.441,-1.262 2,-1.238 2,-1.238 0,0 -1.32,0.801 -1.832,1.578 -0.516,0.777 -0.93,1.262 -0.809,1.48 0.121,0.219 1.598,-0.895 2.207,-1.84 0.973,-1.504 2.809,-4.301 3.664,-6.969 0.855,-2.672 1.449,-5.438 1.449,-5.438 z"
       inkscape:connector-curvature="0" />
    <path
       id="path10"
       style="fill:#ffffff"
       d="m 23.707,20.504 c 0,0 -0.074,0.195 -0.93,0.125 -0.855,-0.074 -4.184,-1.117 -5.969,-3.254 -1.785,-2.137 -1.934,-5.074 -2.055,-6.602 -0.125,-1.527 0.555,-1.102 0.652,-0.91 0.152,0.129 0.227,0.547 0.227,0.547 0,0 -0.055,-0.625 -0.324,-0.895 -0.27,-0.266 -0.508,-0.27 -0.777,0.191 -0.27,0.461 -0.391,1.746 -0.172,2.984 0.223,1.238 1.129,4.078 2.254,5.387 1.125,1.313 3.375,2.453 5.04,2.793 1.664,0.34 2.055,-0.363 2.055,-0.363 z"
       inkscape:connector-curvature="0" />
    <path
       id="path12"
       style="fill:#ffffff"
       d="m 12.867,21.06 c 0,0 3.23,-1.043 6.289,-1.332 3.059,-0.293 4.113,0.023 4.379,0.242 0.27,0.219 0.27,0.461 0.27,0.461 0,0 0.344,-0.34 0.117,-0.684 -0.191,-0.359 -0.484,-0.652 -2.906,-0.578 -2.422,0.07 -2.594,0.168 -4.82,0.582 -2.227,0.414 -3.328,1.309 -3.328,1.309 z"
       inkscape:connector-curvature="0" />
  </g>
</svg>
