<?xml version="1.0" encoding="UTF-8" standalone="no"?>
<svg
   xmlns:dc="http://purl.org/dc/elements/1.1/"
   xmlns:cc="http://creativecommons.org/ns#"
   xmlns:rdf="http://www.w3.org/1999/02/22-rdf-syntax-ns#"
   xmlns:svg="http://www.w3.org/2000/svg"
   xmlns="http://www.w3.org/2000/svg"
   xmlns:xlink="http://www.w3.org/1999/xlink"
   xmlns:sodipodi="http://sodipodi.sourceforge.net/DTD/sodipodi-0.dtd"
   xmlns:inkscape="http://www.inkscape.org/namespaces/inkscape"
   viewBox="0 0 48 48"
   version="1.1"
   id="svg68"
   sodipodi:docname="pendrive.svg"
   inkscape:version="0.92.2 (5c3e80d, 2017-08-06)">
  <metadata
     id="metadata72">
    <rdf:RDF>
      <cc:Work
         rdf:about="">
        <dc:format>image/svg+xml</dc:format>
        <dc:type
           rdf:resource="http://purl.org/dc/dcmitype/StillImage" />
        <dc:title></dc:title>
      </cc:Work>
    </rdf:RDF>
  </metadata>
  <sodipodi:namedview
     pagecolor="#ffffff"
     bordercolor="#666666"
     borderopacity="1"
     objecttolerance="10"
     gridtolerance="10"
     guidetolerance="10"
     inkscape:pageopacity="0"
     inkscape:pageshadow="2"
     inkscape:window-width="1920"
     inkscape:window-height="1017"
     id="namedview70"
     showgrid="false"
     inkscape:zoom="9.8333333"
     inkscape:cx="-0.6736385"
     inkscape:cy="24.610616"
     inkscape:window-x="-8"
     inkscape:window-y="-8"
     inkscape:window-maximized="1"
     inkscape:current-layer="svg68" />
  <defs
     id="defs18">
    <linearGradient
       inkscape:collect="always"
       id="linearGradient1555">
      <stop
         style="stop-color:#cdd32d;stop-opacity:1;"
         offset="0"
         id="stop1551" />
      <stop
         style="stop-color:#f6ff01;stop-opacity:1"
         offset="1"
         id="stop1553" />
    </linearGradient>
    <clipPath
       id="d">
      <path
         d="m416.1875,353.71875c-2.27611.01915-4.55409.05788-6.8125.125-.79339.02361-1.58399.06421-2.375.09375-1.87885.07012-3.76052.14636-5.625.25l-.625.03124-1.40625.09376c-1.03589.06455-2.0628.14376-3.09375.21875-2.44254.17776-4.86866.38853-7.28125.625-2.95579.28972-5.90685.62183-8.8125,1.00001-.99424.12939-1.98084.26646-2.96875.40624-.45769.06477-.9187.1205-1.375.1875-.39907.05861-.78951.12718-1.1875.1875-1.04146.15779-2.09113.29926-3.125.46876-.16689.02737-.33331.06606-.5.09374-.7229.11999-1.43721.24926-2.15625.375-.47849.08371-.96075.16375-1.4375.25l-.15625.03125c-2.68057.48671-5.34627.99503-7.96875,1.5625l-.40625.09375c-.68662.14985-1.3801.31334-2.0625.46875-1.04523.2381-2.08994.49883-3.125.75l-2.0625.5-.93749.25c-.63821.16437-1.27222.33055-1.90626.5-.69977.18695-1.39915.36936-2.09375.5625l-.09375.03125-.84375.25c-1.94721.5514-3.87686,1.11819-5.78124,1.71875-.61605.19422-1.23236.39438-1.84376.59375-1.03508.33768-2.07227.67878-3.09375,1.03125-.90964.31388-1.82017.64312-2.71875.96875-.61761.22377-1.23147.45818-1.84375.68751l-.125.03124c-.93458.35079-1.85938.69874-2.78125,1.0625-1.19676.47223-2.38776.94337-3.56251,1.4375-.62108.26129-1.22895.54507-1.84374.8125l-1.09375.46875c-.5154.22862-1.02044.48576-1.53125.71875-.44482.2029-.90245.38753-1.34374.59375-.43708.20424-.87892.41751-1.31251.625-1.15103.55102-2.28033,1.1135-3.40625,1.6875-.63182.32211-1.25126.67065-1.875,1-.48565.25637-.98806.48924-1.46875.75-1.09507.5942-2.18122,1.19544-3.25,1.8125l-280.53125,162.03125c-.4053.234-.80751.47867-1.1875.71875s-.74066.4739-1.09375.71875c-.35654.24724-.70023.49713-1.03125.75s-.6351.49471-.9375.75c-.30581.25817-.59461.51796-.875.78125-.21686.20363-.45457.41844-.65625.625-.05488.05619-.10249.1311-.15625.1875-.23566.24779-.47347.46702-.6875.71875-.24526.28803-.4705.61335-.6875.90625-.01685.02281-.04582.03965-.06251.06249-.18412.25157-.33662.49509-.5.75001-.1763.27498-.34781.53384-.5.8125-.00868.01585.00859.04663 0,.0625-.14602.27005-.2828.53924-.40625.8125l-.03125.0625c-.12068.27116-.24522.53841-.34375.81251-.10142.28209-.20325.55878-.28126.84374-.00793.02887.0077.06486 0,.09375-.21841.82388-.35118,1.6562-.375,2.5-.00126.04124.00079.08371 0,.125-.00089.05267.00013.10351 0,.15625v141.625c-.08121,6.29796 5.22197,13.06471 15.71875,19.125l244.96875,141.4375c18.55771,10.71428 40.92758,12.0806 55.84375,3.46875l280.65625-162.03125c29.63812-17.11159 44.04544-40.1282 44.03125-64.71875v-140.125c.02191-.85678.01333-1.70184 0-2.5625-.00048-.03104.00053-.0627 0-.09375-.01515-.89229-.04081-1.79147-.09375-2.6875-.03991-.67578-.09488-1.35354-.15625-2.03125-.01984-.21911-.04042-.43695-.0625-.65625-.01978-.1962-.04093-.39741-.0625-.59375-.01143-.10402-.01932-.20844-.03125-.3125-.10246-.89399-.23546-1.79077-.375-2.6875-.00159-.01018.00159-.02106 0-.03125-.09253-.59175-.20385-1.18845-.3125-1.78125-.12759-.69613-.25646-1.39635-.40625-2.09375-.15987-.74417-.34615-1.50461-.53125-2.25-.09299-.37415-.18191-.75059-.28125-1.125-.1715-.64719-.3408-1.28964-.53125-1.9375-.00919-.03121-.02202-.06253-.03125-.09375-.19481-.65948-.41059-1.30873-.625-1.96875-.11114-.34213-.19609-.68901-.3125-1.03125-.04652-.13679-.10889-.26947-.15625-.40625-.21839-.63065-.45127-1.27536-.6875-1.90625-.10572-.28218-.20321-.56154-.3125-.84375-.35254-.9111-.73534-1.80763-1.125-2.71875-.31573-.73822-.62871-1.48076-.96875-2.21875-.08234-.17869-.16624-.35258-.25-.53125-.09242-.19727-.18709-.39651-.28125-.59376-.33719-.70572-.70312-1.41977-1.0625-2.12499-.46149-.90559-.93948-1.81436-1.4375-2.71875-.48193-.87517-.98393-1.75134-1.5-2.625-.019-.03216-.04345-.06158-.0625-.09375-.32656-.55126-.65986-1.10571-1-1.65625-.21713-.35153-.43359-.7113-.65625-1.0625-.15156-.23894-.31463-.47997-.46875-.71875-.4313-.66845-.86118-1.33292-1.3125-2.00001-.51937-.76755-1.04792-1.54698-1.59375-2.31249-.09458-.1326-.18587-.27371-.28125-.40625-.63404-.88125-1.29969-1.74689-1.96875-2.625-.01368-.01795-.01756-.04455-.03125-.0625-.75462-.98924-1.54477-1.98404-2.34375-2.96875-.17043-.20999-.35881-.41524-.53125-.62501-.65614-.79824-1.31472-1.58012-2-2.37499-.58093-.67392-1.17942-1.35996-1.78125-2.03125l-.875-.96875c-.51308-.56174-1.03475-1.12779-1.5625-1.6875-.40205-.42633-.8082-.85615-1.21875-1.28125-.43109-.44633-.87205-.89883-1.3125-1.34375-.52736-.5326-1.08424-1.06326-1.625-1.59375-1.00029-.9813-2.01645-1.96387-3.0625-2.9375-.75055-.69859-1.50718-1.39937-2.28125-2.09374l-.90625-.81251c-.13159-.11636-.274-.22752-.40625-.34375-.54422-.47832-1.10082-.96134-1.65625-1.4375-.43826-.37568-.86727-.7507-1.3125-1.125-1.11913-.9409-2.2744-1.88073-3.4375-2.8125-.92966-.7445-1.88607-1.51167-2.84375-2.24999l-.78125-.59376c-.82088-.62644-1.6589-1.25327-2.5-1.875-.40961-.30274-.8356-.60465-1.25-.90625h-.03125c-1.26121-.91766-2.53826-1.84335-3.84375-2.75-1.20885-.83953-2.44077-1.67037-3.6875-2.5-.11767-.0783-.22574-.17179-.34375-.25-.45539-.30182-.91459-.60579-1.375-.90625-.90771-.59232-1.82282-1.19435-2.75-1.78125-.31649-.20029-.65-.39409-.96875-.59375-1.09952-.6887-2.2173-1.3504-3.34375-2.03125-1.45064-.8768-2.91105-1.76174-4.40625-2.625-1.53941-.88878-3.09196-1.76348-4.65625-2.625s-3.13914-1.70128-4.71875-2.53125c-.93401-.49078-1.87058-.98743-2.8125-1.46875l-1.96875-1c-.73666-.36917-1.47752-.73033-2.21875-1.09375-.8722-.42758-1.74663-.86164-2.625-1.28125l-1.59375-.75c-1.10156-.51806-2.20179-1.02563-3.3125-1.53125-.31332-.14265-.62346-.29584-.9375-.43749-1.33557-.60236-2.68318-1.19685-4.03125-1.78126l-.28125-.125c-1.5756-.68115-3.15827-1.3434-4.75-2-1.04346-.43051-2.1062-.83005-3.15625-1.25-.64733-.25883-1.28774-.52644-1.9375-.78125-1.10142-.43205-2.20434-.86077-3.3125-1.28125l-1.8125-.6875c-.88086-.32816-1.77143-.64787-2.65625-.96875-.84088-.30482-1.68693-.608-2.53125-.90625l-1.96875-.6875c-.13359-.04624-.27258-.07893-.40625-.125-1.37322-.47352-2.74349-.95007-4.125-1.40625-1.31712-.43476-2.64458-.86228-3.96875-1.28125l-.59375-.1875c-1.57324-.4946-3.1364-.9652-4.71875-1.4375-1.32204-.39482-2.64085-.77703-3.96875-1.15625-.4494-.12829-.89372-.27974-1.34375-.40625-1.253-.35233-2.52359-.6928-3.78125-1.03125-1.5489-.41683-3.10093-.82303-4.65625-1.21875-.77278-.19654-1.53826-.40243-2.3125-.59375l-2.34375-.5625-3.0625-.71875-1.625-.375c-1.27208-.28699-2.53756-.57076-3.8125-.84375-.29198-.06256-.58288-.12567-.875-.18749-1.516-.32064-3.04318-.6367-4.5625-.93751l-.15625-.03125c-1.5714-.3104-3.14453-.58585-4.71875-.875-1.18125-.21713-2.34876-.41986-3.53125-.625l-1.1875-.21875-1.3125-.21875c-1.14653-.19053-2.29029-.38326-3.4375-.5625-.67994-.10624-1.35114-.21023-2.03125-.3125-.89121-.13403-1.79612-.24779-2.6875-.375-.93538-.13342-1.87709-.28035-2.8125-.40624-.64681-.08712-1.29073-.1665-1.9375-.25001-1.57836-.20372-3.14115-.38026-4.71875-.5625-1.57395-.18194-3.14625-.37073-4.71875-.53125-1.67027-.17033-3.36346-.32263-5.03125-.46875-.41811-.03665-.83208-.05863-1.25-.09375-1.3983-.11749-2.79164-.24334-4.1875-.34375-1.7867-.12853-3.562-.24325-5.34375-.34375h-.09375c-.98852-.05548-1.98201-.10942-2.96875-.15625h-.25c-1.4686-.06862-2.94212-.13808-4.40625-.1875-1.06992-.03606-2.1515-.06796-3.21875-.09375l-1.46875-.03125c-1.31108-.02596-2.59976-.0521-3.90625-.0625-1.78851-.01428-3.56477-.01498-5.34375,0z"
         fill-rule="evenodd"
         id="path2" />
    </clipPath>
    <filter
       id="c">
      <feGaussianBlur
         stdDeviation="2.1991"
         id="feGaussianBlur5" />
    </filter>
    <filter
       id="b">
      <feGaussianBlur
         stdDeviation=".8532"
         id="feGaussianBlur8" />
    </filter>
    <linearGradient
       id="a"
       x1="24"
       x2="30.687"
       gradientUnits="userSpaceOnUse">
      <stop
         stop-color="#fff"
         stop-opacity="0"
         offset="0"
         id="stop11" />
      <stop
         stop-color="#fff"
         offset=".5"
         id="stop13" />
      <stop
         stop-color="#999"
         offset="1"
         id="stop15" />
    </linearGradient>
    <linearGradient
       inkscape:collect="always"
       xlink:href="#linearGradient1555"
       id="linearGradient1557"
       x1="-97.261253"
       y1="797.89972"
       x2="-92.782127"
       y2="806.47815"
       gradientUnits="userSpaceOnUse"
       spreadMethod="reflect" />
  </defs>
  <path
     d="m33.301 7.6358c-2.2635 0.01904-4.3768 0.47248-5.9561 1.3843l-15.285 8.8286c-0.35334 0.204-0.53001 0.45124-0.53502 0.71338l-6e-5 7.7256c-0.00442 0.34316 0.28496 0.71158 0.85689 1.0418l13.348 7.7065c1.0112 0.58379 2.23 0.65823 3.0428 0.189l15.292-8.8286c1.6149-0.93236 2.4002-2.1869 2.3994-3.5267l2.1e-4 -7.7742c-0.02724-1.7517-1.3926-3.6435-4.0002-5.149-2.6775-1.5459-6.0605-2.3367-9.1623-2.3106z"
     fill="#999"
     fill-rule="evenodd"
     id="path20" />
  <path
     d="m24 26.316v7.7218l1.7283 0.99779c1.0112 0.58379 2.23 0.65823 3.0428 0.189l1.9156-1.1051v-7.7218l-1.9156 1.1051c-0.81274 0.46923-2.0316 0.39479-3.0428-0.189l-1.7283-0.99779z"
     fill="url(#a)"
     fill-rule="evenodd"
     opacity=".3"
     id="path22" />
  <path
     d="m12.382 19.607 13.347 7.706c1.0112 0.58379 2.2301 0.65839 3.0429 0.18916l15.292-8.8288c3.7436-2.1614 3.0308-6.0539-1.6006-8.7278s-11.376-3.0867-15.119-0.92534l-15.285 8.8274c-0.81732 0.47188-0.6881 1.1757 0.32305 1.7594"
     fill="#ccc"
     fill-rule="evenodd"
     id="path24" />
  <path
     transform="matrix(.054487 0 0 .054487 10.624 -11.637)"
     d="m657.73 493.63c-1.39 24.612-14.499 40.853-31.422 54.37l-287.93 167.27c-28.689 16.447-44.443 6.9636-63.971-2.0231l-233.1-135.34c-32.06-15.808-27.874-26.862-14.939-36.769"
     clip-path="url(#d)"
     fill="none"
     filter="url(#c)"
     stroke="#fff"
     stroke-width="4"
     id="path26" />
  <path
     d="m33.30063,7.6358-.37119.00681-.12941.00511-.30649.01362-.03405.0017-.07662.00511-.16857.01192-.39673.03405c-.16105.01579-.32185.03388-.48017.05449l-.16176.02214-.07492.01022-.0647.01022-.17027.02554-.02724.00511-.11749.02043-.07832.01362-.00851.0017c-.14606.02652-.2913.05422-.43419.08514l-.02213.00511-.11238.02554-.17027.04087-.11238.02724-.05108.01362-.10387.02724-.11408.03065-.00511.0017-.04597.01362-.315.09365-.10046.03235-.16857.05619-.14814.05278c-.03365.01219-.0671.02496-.10046.03746l-.00681.0017-.15154.05789-.19411.07832-.10046.04427-.0596.02554-.08343.03916-.07322.03235-.07151.03405-.1856.09195-.10216.05449-.08003.04087-.17708.09876-15.28528,8.82858-.0647.03916-.05959.03916-.05619.04086-.05108.04087-.04768.04257-.03576.03405-.00851.01022-.03746.03916-.03746.04938-.0034.00341c-.01003.01371-.01834.02698-.02724.04087s-.01895.02909-.02724.04427c-.00047.00086.00047.00254 0,.00341-.00796.01471-.01541.02938-.02214.04427l-.0017.00341c-.00657.01478-.01336.02934-.01873.04427l-.01532.04597c-.00043.00157.00042.00353 0,.00511-.0119.04489-.01914.09024-.02043.13622-7e-005,.00225 4e-005,.00456 0,.00681s1e-005,.00564 0,.00851v7.71671c-.00442.34316.28453.71185.85647,1.04206l13.34759,7.70649c1.01115.58379 2.23002.65823 3.04275.189l15.29209-8.82858c1.61489-.93236 2.3999-2.18646 2.39913-3.52632v-7.63498c.00119-.04668.00073-.09273 0-.13962-3e-005-.00169 3e-005-.00342 0-.00511-.00083-.04862-.00222-.09761-.00511-.14643-.00217-.03682-.00517-.07375-.00851-.11068l-.00341-.03576-.00341-.03235-.0017-.01703c-.00558-.04871-.01283-.09757-.02043-.14643-9e-005-.00055 9e-005-.00115 0-.0017l-.01703-.09705c-.00695-.03793-.01397-.07608-.02214-.11408l-.02895-.1226-.01532-.0613c-.00935-.03526-.01857-.07027-.02895-.10557l-.0017-.00511c-.01061-.03593-.02237-.07131-.03405-.10727l-.01703-.05619c-.00253-.00745-.00593-.01468-.00851-.02214l-.03746-.10387-.01703-.04597-.0613-.14814-.05278-.12089-.01362-.02895-.01532-.03235-.05789-.11578-.07832-.14814c-.02626-.04768-.05361-.09542-.08173-.14303l-.00341-.00511-.05449-.09024-.03576-.05789-.02554-.03916-.07151-.10897-.08684-.126-.01532-.02214c-.03455-.04802-.07082-.09518-.10727-.14303l-.0017-.00341-.1277-.16176-.02895-.03405-.10897-.12941-.09705-.11068-.04768-.05278-.08514-.09195-.06641-.06981-.07151-.07322-.08854-.08684-.16687-.16006-.1243-.11408-.04938-.04427-.02214-.01873-.09024-.07832-.07151-.0613-.1873-.15324-.15495-.1226-.04257-.03235-.13622-.10216-.06811-.04938h-.0017l-.20943-.14984c-.06587-.04574-.13299-.09101-.20092-.13622l-.01873-.01362-.07492-.04938c-.04946-.03227-.09932-.06508-.14984-.09705l-.05278-.03235-.18219-.11068c-.07904-.04777-.15861-.09599-.24008-.14303s-.16847-.09609-.2537-.14303l-.25711-.13792-.15325-.08003-.10727-.05449-.12089-.05959-.14303-.06981-.08684-.04087-.18049-.08343-.05108-.02384c-.07277-.03282-.1462-.06521-.21965-.09705l-.01532-.00681-.25881-.10897-.17198-.06811-.10557-.04257-.18049-.06981c-.03284-.01245-.06582-.02519-.09876-.03746l-.14473-.05278-.13792-.04938c-.03565-.0126-.07151-.02508-.10727-.03746l-.02214-.00681-.22476-.07662-.21625-.06981-.03235-.01022-.25711-.07832-.21625-.063c-.02449-.00699-.0487-.01524-.07322-.02214l-.20603-.05619-.25371-.06641-.126-.03235-.1277-.03065-.16687-.03916-.08854-.02043-.20773-.04597-.04768-.01022-.2486-.05108-.00851-.0017-.25711-.04768-.19241-.03405-.0647-.01192-.07151-.01192-.1873-.03065-.11068-.01703-.14643-.02043c-.05097-.00727-.10228-.01528-.15324-.02214l-.10557-.01362-.25711-.03065-.25711-.02895-.27414-.02554-.06811-.00511-.22816-.01873-.29116-.01873h-.00511l-.16176-.00851h-.01362l-.24008-.01022-.17538-.00511-.08003-.0017-.21284-.00341h-.29116z"
     fill="#000080"
     fill-rule="evenodd"
     opacity=".8"
     id="path28"
     style="fill:#060e9f;fill-opacity:1" />
  <path
     d="m28.25317,13.63285c-.47841.27621-.48948.74039-.08491,1.14446l-2.29066,1.32251c-.05891.03392-.09684.07876-.11.13003l-.91346,3.59337-.73608.42498c-.71567-.25803-1.55754-.26063-2.05204.02487-.60292.3481-.46159.99472.31546,1.44336s1.89705.53023 2.49997.18213c.47731-.27558.48705-.7392.08531-1.14262l.92604-.53465 .005.00127 .00059-.0045 2.056-1.18704 .0022.00288 5.55496-.47168c.08929-.00716.1676-.0287.22701-.06247l2.09372-1.20881 .57605.33258 .28802.16629 .22348-.12903 1.7599-1.01608 .22348-.12902-.28802-.16629-2.12058-1.22432-.28802-.16629-.22348.12903-1.7599,1.01608-.22348.12903 .28802.16629 .68046.39286-2.00293,1.15639-3.67561.31163 7.8888-4.5546 1.10889.64022 .39783.22969 .07016-.26915 .5233-2.06065 .07155-.26996-.46799.03947-3.57235.3019-.46619.04051 .39783.22969 1.07289.61943-10.118,5.84163 .63605-2.50198 2.1873-1.26284c.71466.25637 1.55362.25874 2.04704-.02614 .60292-.3481.46339-.99369-.31366-1.44232s-1.89705-.53023-2.49997-.18213"
     id="path30"
     fill="#fff"
     opacity=".3"
     style="opacity:1" />
  <g
     transform="matrix(.054487 0 0 .054487 10.624 -11.637)"
     id="g66">
    <path
       d="m-168.77 830.91 214.8 124.02 214.8-124.02-214.8-124.02-214.8 124.02z"
       fill="#808080"
       fill-rule="evenodd"
       id="path34" />
    <path
       d="m-165.7 829.13 217.87-125.79v-99.213l-217.87 125.79v99.213z"
       fill="#4d4d4d"
       fill-rule="evenodd"
       id="path36" />
    <path
       d="m30.686 928.35 228.14-132.87v-17.717l-228.14 132.87v17.717z"
       fill="#b3b3b3"
       fill-rule="evenodd"
       id="path38" />
    <path
       d="m-153.43 822.05v-17.717l184.12 106.3v17.717l-184.12-106.3z"
       fill="#ececec"
       fill-rule="evenodd"
       id="path40" />
    <path
       d="m30.686 910.63-184.12-106.3 230.14-132.87 184.12 106.3-230.14 132.87z"
       fill="#ccc"
       fill-rule="evenodd"
       id="path42" />
    <path
       d="m-103.86 802.29 23.014 13.287 203.59-117.54-23.014-13.287-203.59 117.54m38.357 22.146 23.014 13.287 203.59-117.54-23.014-13.287-203.59 117.54m38.357 22.146 23.014 13.287 203.59-117.54-23.014-13.287-203.59 117.54m38.357 22.146 23.014 13.287 203.59-117.54-23.014-13.287-203.59 117.54"
       id="path44"
       fill-rule="evenodd"
       fill="#808080"
       style="fill:url(#linearGradient1557);fill-opacity:1.0" />
    <path
       d="m46.031 600.59-214.81 124 214.81 124.03 214.81-124.03-214.81-124zm-15.344 79.719 30.688 17.719-61.375 35.438-30.688-17.719 61.375-35.438zm61.375 35.438 30.688 17.719-61.375 35.438-30.688-17.719 61.375-35.438z"
       fill="#808080"
       fill-rule="evenodd"
       id="path46" />
    <path
       d="m46.029 954.92v-106.3l214.8-124.02v106.3l-214.8 124.02z"
       fill="#4d4d4d"
       fill-rule="evenodd"
       id="path48" />
    <path
       d="m-27.617 717.52-3.0686-1.7716 61.372-35.433v3.5433l-58.303 33.661z"
       fill="#333"
       fill-rule="evenodd"
       id="path50" />
    <path
       d="m30.686 680.31v3.5433l27.617 15.945 3.0686-1.7717-30.686-17.717z"
       fill="#e6e6e6"
       fill-rule="evenodd"
       id="path52" />
    <path
       d="m-168.78 724.59v106.31l214.81 124v-106.28l-214.81-124.03zm3.0625 5.3125 208.69 120.5v99.188l-208.69-120.47v-99.219z"
       fill="#e6e6e6"
       fill-rule="evenodd"
       id="path54" />
    <path
       d="m33.755 752.95-3.0686-1.7716 61.372-35.433v3.5433l-58.303 33.661z"
       fill="#333"
       fill-rule="evenodd"
       id="path56" />
    <path
       d="m92.058 715.75v3.5433l27.617 15.945 3.0686-1.7717-30.686-17.717z"
       fill="#e6e6e6"
       fill-rule="evenodd"
       id="path58" />
    <path
       d="m33.755 752.95 58.303-33.661 27.617 15.945-58.303 33.661-27.617-15.945z"
       fill-rule="evenodd"
       opacity=".6"
       id="path60" />
    <path
       d="m-27.617 717.52 58.303-33.661 27.617 15.945-58.303 33.661-27.617-15.945z"
       fill-rule="evenodd"
       opacity=".6"
       id="path62" />
    <path
       d="m47.104 848.01 211.29-122"
       fill="none"
       filter="url(#b)"
       opacity=".24"
       stroke="#fff"
       stroke-width="4"
       id="path64" />
  </g>
</svg>
