<?xml version="1.0" encoding="UTF-8" standalone="no"?>
<svg
   xmlns:dc="http://purl.org/dc/elements/1.1/"
   xmlns:cc="http://creativecommons.org/ns#"
   xmlns:rdf="http://www.w3.org/1999/02/22-rdf-syntax-ns#"
   xmlns:svg="http://www.w3.org/2000/svg"
   xmlns="http://www.w3.org/2000/svg"
   version="1.2"
   width="16"
   height="16">
  <path
     d="m 7.8421587,4.2118569 c -0.087443,0 -0.157839,0.070396 -0.157839,0.1578389 v 0.9470339 c 0,0.087443 0.070396,0.157839 0.157839,0.157839 h 0.3156779 c 0.087443,0 0.157839,-0.070396 0.157839,-0.157839 V 4.3696958 c 0,-0.087443 -0.070396,-0.1578389 -0.157839,-0.1578389 z M 5.5534934,5.1588908 c -0.040347,0 -0.087464,0.028274 -0.1183792,0.05919 L 5.2180856,5.435109 c -0.061831,0.061831 -0.061831,0.1551972 0,0.2170286 l 0.6708156,0.6708157 c 0.061831,0.061831 0.1551972,0.061831 0.2170286,0 L 6.3229585,6.1059247 c 0.061831,-0.061831 0.061831,-0.1551972 0,-0.2170287 L 5.6521428,5.2180804 c -0.030916,-0.030916 -0.058303,-0.05919 -0.098649,-0.05919 z m 4.8930086,0 c -0.04035,0 -0.06773,0.028274 -0.09865,0.05919 L 9.6770368,5.888896 c -0.061829,0.061831 -0.061829,0.1551972 0,0.2170287 l 0.2170286,0.2170286 c 0.061829,0.061831 0.1551976,0.061831 0.2170286,0 L 10.78191,5.6521376 c 0.06183,-0.061831 0.06183,-0.1551972 0,-0.2170286 L 10.564881,5.2180804 c -0.03092,-0.030916 -0.07803,-0.05919 -0.118379,-0.05919 z M 4.369701,7.6843145 c -0.087443,0 -0.1578389,0.070396 -0.1578389,0.157839 v 0.3156779 c 0,0.087443 0.070396,0.157839 0.1578389,0.157839 h 0.9470339 c 0.087443,0 0.157839,-0.070396 0.157839,-0.157839 V 7.8421535 c 0,-0.087443 -0.070396,-0.157839 -0.157839,-0.157839 z m 6.313559,0 c -0.08744,0 -0.157839,0.070396 -0.157839,0.157839 v 0.3156779 c 0,0.087443 0.0704,0.157839 0.157839,0.157839 h 0.947034 c 0.08744,0 0.157839,-0.070396 0.157839,-0.157839 V 7.8421535 c 0,-0.087443 -0.0704,-0.157839 -0.157839,-0.157839 z M 5.9875506,9.6375719 c -0.040347,0 -0.067734,0.00854 -0.098649,0.03946 l -0.670816,0.6708151 c -0.061831,0.06183 -0.061831,0.155198 0,0.217029 l 0.2170286,0.217029 c 0.061831,0.06183 0.1551972,0.06183 0.2170286,0 l 0.6708157,-0.670816 c 0.061831,-0.06183 0.061831,-0.1551976 0,-0.2170288 L 6.1059298,9.6770316 c -0.030916,-0.030917 -0.078032,-0.03946 -0.1183792,-0.03946 z m 4.0248944,0 c -0.04035,0 -0.087464,0.00854 -0.1183796,0.03946 L 9.6770368,9.8940602 c -0.061829,0.061829 -0.061829,0.1551978 0,0.2170288 l 0.6708162,0.670816 c 0.06183,0.06183 0.155197,0.06183 0.217028,0 l 0.217029,-0.217029 c 0.06183,-0.06183 0.06183,-0.155197 0,-0.217029 L 10.111094,9.6770316 c -0.03092,-0.030917 -0.0583,-0.03946 -0.09865,-0.03946 z M 7.8421587,10.525416 c -0.087443,0 -0.157839,0.0704 -0.157839,0.157839 v 0.947034 c 0,0.08744 0.070396,0.157839 0.157839,0.157839 h 0.3156779 c 0.087443,0 0.157839,-0.0704 0.157839,-0.157839 v -0.947034 c 0,-0.08744 -0.070396,-0.157839 -0.157839,-0.157839 z"
     style="color:#000000;display:inline;overflow:visible;visibility:visible;fill:#000000;fill-opacity:1;fill-rule:nonzero;stroke:none;stroke-width:2.00000024;marker:none;enable-background:new" />
  <circle
     style="opacity:1;fill:none;fill-opacity:1;stroke:#000000;stroke-width:1;stroke-linecap:round;stroke-linejoin:round;stroke-miterlimit:4;stroke-dasharray:none;stroke-opacity:1"
     cx="8"
     cy="8"
     r="1.1398305" />
</svg>
