<?xml version="1.0" encoding="UTF-8" standalone="no"?>
<!-- Created with Inkscape (http://www.inkscape.org/) -->

<svg
   xmlns:dc="http://purl.org/dc/elements/1.1/"
   xmlns:cc="http://creativecommons.org/ns#"
   xmlns:rdf="http://www.w3.org/1999/02/22-rdf-syntax-ns#"
   xmlns:svg="http://www.w3.org/2000/svg"
   xmlns="http://www.w3.org/2000/svg"
   xmlns:sodipodi="http://sodipodi.sourceforge.net/DTD/sodipodi-0.dtd"
   xmlns:inkscape="http://www.inkscape.org/namespaces/inkscape"
   sodipodi:docname="none.svg"
   inkscape:export-filename="/home/sam/source-symbolic.png"
   inkscape:export-xdpi="270"
   inkscape:export-ydpi="270"
   height="16"
   id="svg7384"
   style="enable-background:new"
   version="1.1"
   inkscape:version="0.92.2 (5c3e80d, 2017-08-06)"
   width="16">
  <sodipodi:namedview
     inkscape:bbox-nodes="true"
     inkscape:bbox-paths="true"
     bordercolor="#666666"
     borderlayer="false"
     borderopacity="1"
     inkscape:current-layer="layer10"
     inkscape:cx="-0.36765614"
     inkscape:cy="8.4226526"
     gridtolerance="10"
     inkscape:guide-bbox="true"
     guidetolerance="10"
     id="namedview88"
     inkscape:object-nodes="true"
     inkscape:object-paths="true"
     objecttolerance="10"
     pagecolor="#f7f7f7"
     inkscape:pageopacity="1"
     inkscape:pageshadow="2"
     showborder="true"
     showgrid="false"
     showguides="true"
     inkscape:showpageshadow="false"
     inkscape:snap-bbox="true"
     inkscape:snap-bbox-edge-midpoints="false"
     inkscape:snap-bbox-midpoints="false"
     inkscape:snap-center="false"
     inkscape:snap-global="true"
     inkscape:snap-grids="true"
     inkscape:snap-intersection-paths="true"
     inkscape:snap-midpoints="true"
     inkscape:snap-nodes="true"
     inkscape:snap-object-midpoints="true"
     inkscape:snap-others="true"
     inkscape:snap-page="false"
     inkscape:snap-smooth-nodes="true"
     inkscape:snap-to-guides="true"
     inkscape:window-height="1170"
     inkscape:window-maximized="0"
     inkscape:window-width="1740"
     inkscape:window-x="1295"
     inkscape:window-y="250"
     inkscape:zoom="22.627417">
    <inkscape:grid
       color="#000000"
       dotted="false"
       empcolor="#0800ff"
       empopacity="0.4627451"
       empspacing="4"
       enabled="true"
       id="grid4866"
       opacity="0.16470588"
       originx="-124"
       originy="-376"
       snapvisiblegridlinesonly="true"
       spacingx="0.25"
       spacingy="0.25"
       type="xygrid"
       visible="true" />
  </sodipodi:namedview>
  <metadata
     id="metadata90">
    <rdf:RDF>
      <cc:Work
         rdf:about="">
        <dc:format>image/svg+xml</dc:format>
        <dc:type
           rdf:resource="http://purl.org/dc/dcmitype/StillImage" />
        <dc:title>Paper Symbolic Icon Theme</dc:title>
      </cc:Work>
    </rdf:RDF>
  </metadata>
  <title
     id="title8473">Paper Symbolic Icon Theme</title>
  <defs
     id="defs7386" />
  <g
     inkscape:groupmode="layer"
     id="layer10"
     inkscape:label="devices">
    <path
       inkscape:connector-curvature="0"
       style="fill:#555555;fill-opacity:1"
       d="m 8.0000001,1.0000002 a 7,7 0 0 0 -7,7 7,7 0 0 0 7,6.9999998 A 7,7 0 0 0 15,8.0000002 a 7,7 0 0 0 -6.9999999,-7 z m -3,4 h 1 c 0.28,0 0.5407,0.1002 0.7207,0.2812 l 1.2793,1.2774 1.2792998,-1.2774 c 0.18,-0.181 0.4407,-0.2812 0.7207,-0.2812 H 11 v 1 c 0,0.276 -0.099,0.5377 -0.279,0.7188 l -1.2815001,1.2812 1.2815001,1.2812 c 0.18,0.1809 0.279,0.4427 0.279,0.7187996 V 11 H 9.9999999 c -0.28,0 -0.5407,-0.1 -0.7207,-0.281 L 8.0000001,9.4336002 6.7207001,10.719 c -0.18,0.181 -0.4407,0.281 -0.7207,0.281 h -1 V 9.9999998 c 0,-0.2760996 0.0993,-0.5377996 0.2793,-0.7187996 l 1.2812,-1.2812 -1.2812,-1.2812 c -0.18,-0.1811 -0.2793,-0.4428 -0.2793,-0.7188 z"
       id="path2" />
  </g>
</svg>
